<svg width="24" height="24" viewBox="0 0 24 24" fill="none" xmlns="http://www.w3.org/2000/svg">
<g clip-path="url(#clip0_62800_27791)">
<path d="M16.1548 6.80566C21.6044 7.06933 25.2968 12.4855 23.5415 17.6377H23.5669C23.4667 17.9319 23.3491 18.2218 23.2144 18.5059L23.9858 22.3613C24.0726 22.7951 23.7407 23.2021 23.2964 23.2021C23.1982 23.2021 23.5316 23.2622 19.2563 22.417C18.1611 22.9365 16.9866 23.2005 15.7612 23.2021C11.2434 23.1956 7.56982 19.5183 7.56982 14.999C7.57009 10.3439 11.466 6.58971 16.1548 6.80566ZM8.25049 0.796875C11.4294 0.797062 14.2638 2.62618 15.6187 5.39258C9.61532 5.48811 5.11925 11.0558 6.37158 16.9873C5.81305 16.8567 5.26911 16.6672 4.74365 16.418L0.839355 17.1895C0.348524 17.2863 -0.0839735 16.8521 0.0141602 16.3613L0.784668 12.5059C0.263832 11.4074 0.000515806 10.2292 0.000488281 9C0.000488281 4.4769 3.70152 0.796875 8.25049 0.796875Z" fill="#006535"/>
</g>
<defs>
<clipPath id="clip0_62800_27791">
<rect width="24" height="24" fill="white"/>
</clipPath>
</defs>
</svg>
