<svg width="24" height="24" viewBox="0 0 24 24" fill="none" xmlns="http://www.w3.org/2000/svg">
<g clip-path="url(#clip0_62800_27793)">
<path d="M24 9.71095V14.289C24 14.6337 23.7208 14.9133 23.3757 14.9133H14.9134V23.3756C14.9134 23.7208 14.6337 23.9999 14.2891 23.9999H9.71098C9.36655 23.9999 9.08669 23.7207 9.08669 23.3756V14.9133H0.62429C0.27938 14.9133 0 14.6337 0 14.289V9.71095C0 9.36625 0.27938 9.08667 0.62429 9.08667H9.08669V0.624288C9.08669 0.279242 9.36648 0 9.71098 0H14.2891C14.6337 0 14.9134 0.279242 14.9134 0.624288V9.08667H23.3757C23.7208 9.08667 24 9.36625 24 9.71095Z" fill="#006535"/>
</g>
<defs>
<clipPath id="clip0_62800_27793">
<rect width="24" height="24" fill="white"/>
</clipPath>
</defs>
</svg>
