<svg width="24" height="24" viewBox="0 0 24 24" fill="none" xmlns="http://www.w3.org/2000/svg">
<g clip-path="url(#clip0_62800_109312)">
<path d="M22.5565 14.1887V6.35242C22.5565 4.42079 20.9848 2.84912 19.0532 2.84912C17.1216 2.84912 15.5499 4.42079 15.5499 6.35242V21.8136C15.5499 22.2002 15.2358 22.5143 14.8493 22.5143H7.79595C7.40937 22.5143 7.09529 22.2002 7.09529 21.8136V20.2832C7.90908 19.993 8.49661 19.1759 8.49661 18.2636V18.2137C10.8702 17.8729 12.7473 15.8257 12.7473 13.359V7.05308H0.0419922V13.359C0.0419922 15.8257 1.91906 17.8729 4.29266 18.2137V18.2636C4.29266 19.1759 4.88018 19.993 5.69397 20.2832V21.8136C5.69397 22.9727 6.63687 23.9156 7.79595 23.9156H14.8493C16.0083 23.9156 16.9512 22.9727 16.9512 21.8136V6.35242C16.9512 5.19334 17.8941 4.25044 19.0532 4.25044C20.2123 4.25044 21.1552 5.19334 21.1552 6.35242V14.1887C20.3414 14.4789 19.7539 15.2494 19.7539 16.1616V20.4123C19.7539 20.7996 20.0672 21.113 20.4545 21.113H21.1552V23.2991C21.1552 23.6864 21.4686 23.9998 21.8558 23.9998C22.2431 23.9998 22.5565 23.6864 22.5565 23.2991V21.113H23.2572C23.6444 21.113 23.9578 20.7996 23.9578 20.4123V16.1616C23.9578 15.2494 23.3703 14.4789 22.5565 14.1887ZM4.99332 8.45439H7.79595C8.18323 8.45439 8.49661 8.76778 8.49661 9.15505C8.49661 9.54233 8.18323 9.85571 7.79595 9.85571H4.99332C4.60604 9.85571 4.29266 9.54233 4.29266 9.15505C4.29266 8.76778 4.60604 8.45439 4.99332 8.45439ZM4.99332 11.257H7.79595C8.18323 11.257 8.49661 11.5704 8.49661 11.9577C8.49661 12.345 8.18323 12.6583 7.79595 12.6583H4.99332C4.60604 12.6583 4.29266 12.345 4.29266 11.9577C4.29266 11.5704 4.60604 11.257 4.99332 11.257ZM4.99332 15.461C4.60604 15.461 4.29266 15.1476 4.29266 14.7603C4.29266 14.373 4.60604 14.0597 4.99332 14.0597H7.79595C8.18323 14.0597 8.49661 14.373 8.49661 14.7603C8.49661 15.1476 8.18323 15.461 7.79595 15.461H4.99332Z" fill="black"/>
<path d="M12.7473 3.55002C12.7473 3.16274 12.4339 2.84936 12.0466 2.84936H9.82884C9.69338 2.17537 9.36356 1.47901 8.87296 1.00139C7.5688 -0.33836 5.20683 -0.324674 3.93004 0.987707C3.42916 1.47555 3.09659 2.17472 2.96042 2.84936H0.742651C0.355374 2.84936 0.0419922 3.16274 0.0419922 3.55002V5.65199H12.7473V3.55002Z" fill="black"/>
</g>
<defs>
<clipPath id="clip0_62800_109312">
<rect width="24" height="24" fill="white"/>
</clipPath>
</defs>
</svg>
