<svg width="24" height="24" viewBox="0 0 24 24" fill="none" xmlns="http://www.w3.org/2000/svg">
<path d="M8.61567 10.2876C10.1341 10.5841 11.6719 9.90966 11.6719 9.1875C11.6719 8.63433 10.6896 8.01562 9.375 8.01562C8.14491 8.01562 7.07812 8.59308 7.07812 9.1875C7.07812 9.64392 7.73916 10.1169 8.61567 10.2876Z" fill="#8C8C8C"/>
<path d="M16.0566 13.7345H18.7032V12.0381C17.9491 12.7513 16.9986 13.3088 16.0566 13.7345Z" fill="#8C8C8C"/>
<path d="M2.12658 11.728C3.42909 12.5274 5.18222 13.1767 6.93633 13.5095C12.2974 14.5281 18.7031 11.8394 18.7031 9.1875C18.7031 7.53047 17.6861 5.99883 15.8394 4.87467C14.1017 3.81694 11.8059 3.23438 9.375 3.23438C4.36992 3.23438 0 5.75166 0 9.1875C0 10.0027 0.785484 10.9049 2.12658 11.728ZM5.70281 8.84658C5.93836 7.55077 7.48284 6.60938 9.375 6.60938C11.4515 6.60938 13.0781 7.74183 13.0781 9.1875C13.0781 10.6332 11.4515 11.7656 9.375 11.7656C9.02484 11.7656 8.67881 11.7328 8.34652 11.6678C6.74686 11.3563 5.67188 10.3595 5.67188 9.1875C5.67188 9.07322 5.68233 8.95847 5.70281 8.84658Z" fill="#8C8C8C"/>
<path d="M9.375 15.1409C8.45433 15.1409 7.54561 15.057 6.67406 14.8914C4.46672 14.4726 1.65553 13.4553 0 11.9258V16.3128C0 17.6529 0.957141 18.8871 2.61014 19.7882C3.54305 20.2965 4.57481 20.615 5.67684 20.7348C5.72995 20.7405 5.68645 20.7387 6.79692 20.7404V18.2077C6.79692 17.8291 7.08787 17.5033 7.46606 17.4855C7.8698 17.4665 8.20312 17.7882 8.20312 18.1878V20.7425L10.5469 20.7462V18.2077C10.5469 17.8291 10.8378 17.5033 11.216 17.4855C11.6198 17.4665 11.9531 17.7882 11.9531 18.1878V20.7484L14.2969 20.752V18.2077C14.2969 17.8291 14.5878 17.5033 14.966 17.4855C15.3698 17.4665 15.7031 17.7882 15.7031 18.1878V20.7542L18.0469 20.7579V18.2077C18.0469 17.8291 18.3378 17.5033 18.716 17.4855C19.1198 17.4665 19.4531 17.7882 19.4531 18.1878V20.76L23.2958 20.7659C23.6637 20.7659 24 20.4778 24 20.0508V15.8441C24 15.4557 23.6852 15.1409 23.2969 15.1409H9.375Z" fill="#8C8C8C"/>
</svg>
