<svg width="24" height="24" viewBox="0 0 24 24" fill="none" xmlns="http://www.w3.org/2000/svg">
<path d="M17.7623 2.56191C17.5618 2.21531 17.1886 2 16.7885 2H12.6064V6.94676H20.2984L17.7623 2.56191Z" fill="black"/>
<path d="M11.4338 2H7.21227C6.81133 2 6.43816 2.2157 6.2377 2.56309L3.71094 6.94676H11.4337V2H11.4338Z" fill="black"/>
<path d="M3.29199 8.11914V20.6218C3.29199 21.3819 3.91059 22.0001 4.67062 22.0001H19.3308C20.0908 22.0001 20.7094 21.3819 20.7094 20.6218V8.11914H3.29199ZM14.6614 13.377L11.6298 16.4086C11.5154 16.523 11.3653 16.5805 11.2152 16.5805C11.0652 16.5805 10.9151 16.523 10.801 16.4086L9.3798 14.9877C9.15121 14.7591 9.15121 14.3879 9.3798 14.1589C9.60879 13.9299 9.98004 13.9299 10.209 14.1589L11.2153 15.1655L13.8327 12.5481C14.0616 12.3191 14.4329 12.3191 14.6615 12.5481C14.8905 12.7771 14.8905 13.148 14.6614 13.377Z" fill="black"/>
</svg>
