<svg width="24" height="24" viewBox="0 0 24 24" fill="none" xmlns="http://www.w3.org/2000/svg">
<path d="M14.8906 7.85938C14.1368 7.85938 13.5234 7.24605 13.5234 6.49219V2H6.53125C5.3466 2 4.38281 2.96379 4.38281 4.14844V19.8516C4.38281 21.0362 5.3466 22 6.53125 22H17.4688C18.6534 22 19.6172 21.0362 19.6172 19.8516V7.85938H14.8906ZM7.58594 16.0625H10.4266C10.7502 16.0625 11.0125 16.3248 11.0125 16.6484C11.0125 16.972 10.7502 17.2344 10.4266 17.2344H7.58594C7.26234 17.2344 7 16.972 7 16.6484C7 16.3248 7.26234 16.0625 7.58594 16.0625ZM7 13.5234C7 13.1998 7.26234 12.9375 7.58594 12.9375H16.1797C16.5033 12.9375 16.7656 13.1998 16.7656 13.5234C16.7656 13.847 16.5033 14.1094 16.1797 14.1094H7.58594C7.26234 14.1094 7 13.847 7 13.5234ZM16.1797 9.8125C16.5033 9.8125 16.7656 10.0748 16.7656 10.3984C16.7656 10.722 16.5033 10.9844 16.1797 10.9844H7.58594C7.26234 10.9844 7 10.722 7 10.3984C7 10.0748 7.26234 9.8125 7.58594 9.8125H16.1797Z" fill="black"/>
<path d="M14.6953 6.49234C14.6953 6.60004 14.7829 6.68766 14.8906 6.68766H19.356C19.2488 6.48977 19.1109 6.30801 18.9453 6.15125L15.1788 2.58789C15.0326 2.44961 14.8698 2.33426 14.6954 2.24316V6.49234H14.6953Z" fill="black"/>
</svg>
