<svg width="24" height="24" viewBox="0 0 24 24" fill="none" xmlns="http://www.w3.org/2000/svg">
<path d="M16.6154 9.11557H22V6.61557C22 5.02498 20.706 3.73096 19.1154 3.73096H4.88461C3.29402 3.73096 2 5.02498 2 6.61557V17.3848C2 18.9754 3.29402 20.2694 4.88461 20.2694H19.1154C20.706 20.2694 22 18.9754 22 17.3848V14.8848H16.6154C15.0248 14.8848 13.7308 13.5908 13.7308 12.0002C13.7308 10.4096 15.0248 9.11557 16.6154 9.11557Z" fill="black"/>
<path d="M16.6155 10.269C15.6612 10.269 14.8848 11.0454 14.8848 11.9998C14.8848 12.9542 15.6612 13.7306 16.6155 13.7306H22.0002V10.2691L16.6155 10.269ZM17.3848 12.5767H16.6155C16.2969 12.5767 16.0386 12.3184 16.0386 11.9998C16.0386 11.6812 16.297 11.4229 16.6155 11.4229H17.3848C17.7034 11.4229 17.9617 11.6812 17.9617 11.9998C17.9617 12.3184 17.7034 12.5767 17.3848 12.5767Z" fill="black"/>
</svg>
