<svg width="24" height="24" viewBox="0 0 24 24" fill="none" xmlns="http://www.w3.org/2000/svg">
<path d="M19.2742 11.5522C18.3195 12.3391 17.0969 12.8125 15.766 12.8125C15.3054 12.8125 14.8577 12.7557 14.4297 12.649C15.1951 13.8145 15.6411 15.2076 15.6411 16.7031V18.8996C15.6411 19.7212 15.3411 20.4736 14.8458 21.0546H19.8455C21.0337 21.0546 22.0003 20.088 22.0003 18.8996V16.7031C22.0003 14.5654 20.9186 12.6757 19.2742 11.5522Z" fill="black"/>
<path d="M8.23431 11.6406C10.6337 11.6406 12.5858 9.68859 12.5858 7.28915C12.5858 4.88955 10.6337 2.9375 8.23431 2.9375C5.83487 2.9375 3.88281 4.88955 3.88281 7.28915C3.88281 9.68859 5.83487 11.6406 8.23431 11.6406Z" fill="black"/>
<path d="M15.7653 11.6406C18.1648 11.6406 20.117 9.68859 20.117 7.28915C20.117 4.88955 18.1648 2.9375 15.7653 2.9375C14.6046 2.9375 13.5487 3.39435 12.7676 4.1376C13.3912 5.03207 13.7576 6.11849 13.7576 7.28915C13.7576 8.45964 13.3912 9.54607 12.7676 10.4405C13.5487 11.1838 14.6046 11.6406 15.7653 11.6406Z" fill="black"/>
<path d="M11.7426 11.5522C10.788 12.3391 9.56545 12.8125 8.23442 12.8125C6.9034 12.8125 5.68087 12.3393 4.72613 11.5522C3.08169 12.6757 2 14.5654 2 16.7031V18.8996C2 20.088 2.96664 21.0546 4.15499 21.0546H12.3137C13.5021 21.0546 14.4687 20.088 14.4687 18.8996V16.7031C14.4687 14.5654 13.3872 12.6757 11.7426 11.5522Z" fill="black"/>
</svg>
