<svg width="24" height="24" viewBox="0 0 24 24" fill="none" xmlns="http://www.w3.org/2000/svg">
<g clip-path="url(#clip0_62800_109307)">
<path d="M12.9686 9.50459L12.9646 9.51514H7.03486C6.17409 9.51514 5.37286 9.77426 4.70452 10.2183H2.8125C2.03709 10.2183 1.40625 9.58742 1.40625 8.81201C1.40625 8.03661 2.03709 7.40576 2.8125 7.40576H4.92188C5.31019 7.40576 5.625 7.09095 5.625 6.70264C5.625 6.31432 5.31019 5.99951 4.92188 5.99951H2.8125C1.26169 5.99951 0 7.2612 0 8.81201C0 10.3628 1.26169 11.6245 2.8125 11.6245H3.38039C3.01945 12.2464 2.8125 12.9682 2.8125 13.7375V22.5464C2.8125 22.9347 3.12731 23.2495 3.51562 23.2495H6.32812C6.71644 23.2495 7.03125 22.9347 7.03125 22.5464V16.6124L13.4531 17.1892V22.5933C13.4531 22.9816 13.7679 23.2964 14.1562 23.2964H16.9688C17.3571 23.2964 17.6719 22.9816 17.6719 22.5933V15.9129L18.5383 11.5809L12.9686 9.50459Z" fill="black"/>
<path d="M23.2971 5.29631H21.1754C21.0612 4.22301 20.1528 3.37443 19.0338 3.37443H17.854L17.4235 1.26506C17.2826 0.575104 16.3216 0.50001 16.0756 1.16034L13.4595 8.18662L18.8178 10.1841L18.9516 9.51506H20.4846C22.4231 9.51506 24.0002 7.93795 24.0002 5.99943C24.0002 5.61112 23.6854 5.29631 23.2971 5.29631Z" fill="black"/>
</g>
<defs>
<clipPath id="clip0_62800_109307">
<rect width="24" height="24" fill="white"/>
</clipPath>
</defs>
</svg>
