<svg width="24" height="24" viewBox="0 0 24 24" fill="none" xmlns="http://www.w3.org/2000/svg">
<g clip-path="url(#clip0_62803_20852)">
<path d="M18.7202 1.27734H11.3514C10.885 1.27734 10.4371 1.46302 10.1071 1.793L0.515441 11.3829C-0.171814 12.0701 -0.171814 13.1842 0.515441 13.8723L7.88428 21.2412C8.57154 21.9284 9.68558 21.9284 10.3728 21.2412L19.9645 11.6513C20.2945 11.3204 20.4801 10.8725 20.4801 10.4052V3.03728C20.4801 2.06491 19.6926 1.27734 18.7202 1.27734ZM15.6403 7.43711C14.9117 7.43711 14.3204 6.84577 14.3204 6.11716C14.3204 5.38855 14.9117 4.79721 15.6403 4.79721C16.3689 4.79721 16.9603 5.38855 16.9603 6.11716C16.9603 6.84577 16.3689 7.43711 15.6403 7.43711Z" fill="#8C8C8C"/>
<path d="M22.2401 3.03711L22.2392 11.2287C22.2392 11.6344 22.0782 12.0242 21.7905 12.3111L12.0439 22.0576L12.1935 22.2072C12.8808 22.8944 13.9948 22.8944 14.6821 22.2072L23.4835 13.4075C23.8144 13.0775 24.0001 12.6296 24.0001 12.1632V4.79704C24.0001 3.82468 23.2125 3.03711 22.2401 3.03711Z" fill="#8C8C8C"/>
</g>
<defs>
<clipPath id="clip0_62803_20852">
<rect width="24" height="24" fill="white"/>
</clipPath>
</defs>
</svg>
