<svg width="120" height="32" viewBox="0 0 120 32" fill="none" xmlns="http://www.w3.org/2000/svg">
<path d="M111.843 0.657715H120V13.7477C119.956 16.9709 118.849 19.6349 116.678 21.7398C114.529 23.8447 110.901 24.8972 105.792 24.8972C100.617 24.8972 97.076 23.8995 95.1684 21.9043C93.2608 19.887 92.329 17.2449 92.3728 13.9779V0.657715H100.529V13.4517C100.529 14.4164 100.595 15.2058 100.727 15.8197C100.88 16.4117 101.341 16.9709 102.108 17.4971C102.897 18.0233 104.158 18.2864 105.89 18.2864C107.776 18.2864 109.157 18.0233 110.034 17.4971C110.911 16.9489 111.427 16.346 111.58 15.6882C111.756 15.0304 111.843 14.1862 111.843 13.1557V0.657715Z" fill="white"/>
<path d="M89.7515 12.4322C89.7515 19.2732 86.4296 23.2967 79.786 24.5026C80.9919 25.0727 82.3842 25.6208 83.9629 26.1471C82.4939 27.3969 80.5644 29.0633 78.1744 31.1463C75.7187 29.2606 73.6247 27.1228 71.8925 24.7328C67.9677 24.2724 65.0735 22.9787 63.2097 20.8519C61.3679 18.725 60.447 15.9185 60.447 12.4322C60.447 8.52931 61.6201 5.48156 63.9662 3.28894C66.3342 1.09631 70.0398 0 75.0828 0C80.1478 0 83.8533 1.09631 86.1994 3.28894C88.5674 5.48156 89.7515 8.52931 89.7515 12.4322ZM75.0828 18.1878C77.5166 18.1878 79.2707 17.7274 80.3451 16.8065C81.4195 15.8636 81.9567 14.4056 81.9567 12.4322C81.9567 10.5027 81.4195 9.06651 80.3451 8.12368C79.2707 7.18085 77.5166 6.70944 75.0828 6.70944C72.6709 6.70944 70.9278 7.18085 69.8534 8.12368C68.779 9.06651 68.2418 10.5027 68.2418 12.4322C68.2418 14.3836 68.779 15.8308 69.8534 16.7736C70.9278 17.7164 72.6709 18.1878 75.0828 18.1878Z" fill="white"/>
<path d="M57.8257 12.4322C57.8257 19.2732 54.5039 23.2967 47.8602 24.5026C49.0661 25.0727 50.4585 25.6208 52.0372 26.1471C50.5681 27.3969 48.6386 29.0633 46.2486 31.1463C43.7929 29.2606 41.6989 27.1228 39.9668 24.7328C36.042 24.2724 33.1477 22.9787 31.284 20.8519C29.4421 18.725 28.5212 15.9185 28.5212 12.4322C28.5212 8.52931 29.6943 5.48156 32.0404 3.28894C34.4084 1.09631 38.114 0 43.157 0C48.222 0 51.9275 1.09631 54.2736 3.28894C56.6417 5.48156 57.8257 8.52931 57.8257 12.4322ZM43.157 18.1878C45.5908 18.1878 47.3449 17.7274 48.4193 16.8065C49.4937 15.8636 50.0309 14.4056 50.0309 12.4322C50.0309 10.5027 49.4937 9.06651 48.4193 8.12368C47.3449 7.18085 45.5908 6.70944 43.157 6.70944C40.7451 6.70944 39.002 7.18085 37.9276 8.12368C36.8532 9.06651 36.316 10.5027 36.316 12.4322C36.316 14.3836 36.8532 15.8308 37.9276 16.7736C39.002 17.7164 40.7451 18.1878 43.157 18.1878Z" fill="white"/>
<path d="M7.7619 18.5499C16.0939 18.506 22.1346 18.3854 25.884 18.1881C25.7305 19.0871 25.6318 20.0189 25.5879 20.9837C25.566 21.9265 25.5551 23.1215 25.5551 24.5686H0C0.17541 20.3149 0.263115 16.3353 0.263115 12.6298C0.263115 8.92423 0.17541 4.94461 0 0.690918H25.5551V6.6439H7.7619V9.80128C8.81436 9.8232 10.3711 9.83417 12.4322 9.83417C15.9185 9.83417 19.5253 9.76839 23.2528 9.63683V15.2938C19.5253 15.1622 15.9185 15.0965 12.4322 15.0965C10.3711 15.0965 8.81436 15.1074 7.7619 15.1294V18.5499Z" fill="white"/>
</svg>
