<svg width="24" height="24" viewBox="0 0 24 24" fill="none" xmlns="http://www.w3.org/2000/svg">
<g clip-path="url(#clip0_62800_27792)">
<path d="M13.8016 1.35307C12.7343 0.551473 11.2657 0.551472 10.1984 1.35307L1.19841 8.11242C0.443926 8.67906 0 9.56765 0 10.5112V23C0 23.5523 0.447715 24 1 24H7.93752C8.4898 24 8.93752 23.5523 8.93752 23V15.1562C8.93752 14.604 9.38523 14.1562 9.93752 14.1562H14.0625C14.6148 14.1562 15.0625 14.604 15.0625 15.1562V23C15.0625 23.5523 15.5102 24 16.0625 24H23C23.5523 24 24 23.5523 24 23V10.5112C24 9.56765 23.5561 8.67906 22.8016 8.11242L13.8016 1.35307Z" fill="#006535"/>
</g>
<defs>
<clipPath id="clip0_62800_27792">
<rect width="24" height="24" fill="white"/>
</clipPath>
</defs>
</svg>
