<svg width="24" height="24" viewBox="0 0 24 24" fill="none" xmlns="http://www.w3.org/2000/svg">
<path d="M16.7129 11.5928C17.3366 11.5928 17.9201 11.6981 18.4463 11.9062C18.9743 12.1155 19.4308 12.403 19.8037 12.7598C20.1603 13.1008 20.4784 13.5153 20.749 13.9912C21.0097 14.4498 21.2209 14.9285 21.376 15.4131C21.5261 15.882 21.6516 16.3958 21.749 16.9385C21.8455 17.4771 21.911 17.9875 21.9434 18.4551C21.9754 18.9119 21.992 19.3887 21.9922 19.8721C21.9922 21.1254 21.5941 22.1403 20.8086 22.8877C20.0328 23.6259 19.0067 23.9999 17.7588 24H6.20215C4.95426 24 3.92792 23.6257 3.15234 22.8877C2.367 22.1397 1.96875 21.1249 1.96875 19.8721C1.96876 19.3908 1.98475 18.9142 2.0166 18.4551C2.04901 17.9865 2.11448 17.4763 2.21094 16.9385C2.30832 16.3959 2.43408 15.8829 2.58398 15.4141C2.73926 14.929 2.95038 14.4499 3.21094 13.9912C3.48114 13.5155 3.79887 13.101 4.15527 12.7598C4.52863 12.4025 4.98596 12.1161 5.51367 11.9072C6.03973 11.6989 6.62305 11.5928 7.24707 11.5928C7.49187 11.5929 7.7289 11.6936 8.18555 11.9912C8.47126 12.1774 8.80102 12.3895 9.16504 12.6221C9.47906 12.8224 9.90515 13.0109 10.4307 13.1807C10.9443 13.3467 11.4653 13.4306 11.9795 13.4307C12.4937 13.4307 13.0152 13.3467 13.5283 13.1807C14.0544 13.0107 14.4805 12.8224 14.7949 12.6221C15.1625 12.3872 15.4919 12.1748 15.7734 11.9912C16.2309 11.6934 16.468 11.5928 16.7129 11.5928ZM11.8291 0C13.4171 2.91903e-05 14.7921 0.569857 15.916 1.69336C17.0399 2.81743 17.6094 4.19242 17.6094 5.78027C17.6094 7.3687 17.0397 8.74348 15.916 9.86719C14.7923 10.991 13.4173 11.5605 11.8291 11.5605C10.2412 11.5605 8.86609 10.9907 7.74219 9.86719C6.61836 8.7435 6.04883 7.36865 6.04883 5.78027C6.04883 4.19221 6.61847 2.81707 7.74219 1.69336C8.86588 0.569744 10.2407 0 11.8291 0Z" fill="#006535"/>
</svg>
