<svg width="40" height="40" viewBox="0 0 40 40" fill="none" xmlns="http://www.w3.org/2000/svg">
<path d="M32.5781 23.9004C33.3583 23.9004 33.9902 24.5323 33.9902 25.3125V29.7598H38.4375C39.2177 29.7598 39.8496 30.3917 39.8496 31.1719C39.8496 31.9521 39.2177 32.584 38.4375 32.584H33.9902V37.0312C33.9902 37.8114 33.3583 38.4434 32.5781 38.4434C31.7979 38.4434 31.166 37.8114 31.166 37.0312V32.584H26.7188C25.9386 32.584 25.3066 31.9521 25.3066 31.1719C25.3066 30.3917 25.9386 29.7598 26.7188 29.7598H31.166V25.3125C31.166 24.5323 31.7979 23.9004 32.5781 23.9004ZM6.25 4.38086C4.44413 4.38086 2.97461 5.85038 2.97461 7.65625V29.5312C2.97461 31.3371 4.44413 32.8066 6.25 32.8066H18.2148L18.0273 32.5645L11.0596 23.5596L10.9404 23.4062L10.8223 23.5605L8.61816 26.4248C8.14259 27.043 7.25621 27.1593 6.6377 26.6836C6.01964 26.2081 5.90369 25.3217 6.37891 24.7031L9.81836 20.2324C10.0517 19.929 10.3966 19.7346 10.7725 19.6904L10.9355 19.6816H10.9375C11.3745 19.6816 11.7871 19.8835 12.0547 20.2295L16.1514 25.5244L16.2695 25.6768L16.3887 25.5254L28.4209 10.2207C28.6837 9.88626 29.0833 9.68837 29.5088 9.68164H29.5098C29.9353 9.67429 30.3408 9.86033 30.6143 10.1865L36.7598 17.5186L37.0254 17.835V7.65625C37.0254 5.85038 35.5559 4.38086 33.75 4.38086H6.25ZM10.9375 7.18164C13.4395 7.18164 15.4746 9.21675 15.4746 11.7188C15.4746 14.2207 13.4395 16.2559 10.9375 16.2559C8.4355 16.2559 6.40039 14.2207 6.40039 11.7188C6.40039 9.21675 8.4355 7.18164 10.9375 7.18164ZM10.9375 10.0059C9.99315 10.0059 9.22461 10.7744 9.22461 11.7188C9.22461 12.6631 9.99315 13.4316 10.9375 13.4316C11.8819 13.4316 12.6504 12.6631 12.6504 11.7188C12.6504 10.7744 11.8819 10.0059 10.9375 10.0059ZM37.0254 22.2324L36.9902 22.1904L29.6846 13.4756L29.5664 13.334L29.4521 13.4795L18.125 27.8877L18.0527 27.9795L18.124 28.0723L22.2109 33.3545C22.5408 33.7803 22.5995 34.3573 22.3623 34.8408C22.1248 35.3248 21.6325 35.6309 21.0938 35.6309H6.25C2.88649 35.6309 0.150391 32.8948 0.150391 29.5312V7.65625C0.150391 4.29274 2.88649 1.55664 6.25 1.55664H33.75C37.1135 1.55664 39.8496 4.29274 39.8496 7.65625V24.9219C39.8496 25.7021 39.2177 26.334 38.4375 26.334C37.6573 26.334 37.0254 25.7021 37.0254 24.9219V22.2324Z" fill="#006535" stroke="#E5F0EB" stroke-width="0.3"/>
</svg>
