<svg width="24" height="24" viewBox="0 0 24 24" fill="none" xmlns="http://www.w3.org/2000/svg">
<path d="M12.75 6.75V10.7869L16.1644 9.07875C16.2525 9.03468 16.3485 9.0084 16.4468 9.00141C16.5451 8.99443 16.6438 9.00687 16.7373 9.03804C16.8308 9.0692 16.9173 9.11848 16.9917 9.18305C17.0662 9.24762 17.1272 9.32623 17.1713 9.41438C17.2153 9.50253 17.2416 9.5985 17.2486 9.6968C17.2556 9.79511 17.2431 9.89383 17.212 9.98733C17.1808 10.0808 17.1315 10.1673 17.067 10.2417C17.0024 10.3162 16.9238 10.3772 16.8356 10.4213L12.3356 12.6713C12.2212 12.7285 12.0941 12.7555 11.9663 12.7498C11.8386 12.744 11.7144 12.7057 11.6056 12.6385C11.4968 12.5712 11.407 12.4772 11.3448 12.3655C11.2825 12.2537 11.2499 12.1279 11.25 12V6.75C11.25 6.55109 11.329 6.36033 11.4697 6.21967C11.6103 6.07902 11.8011 6 12 6C12.1989 6 12.3897 6.07902 12.5303 6.21967C12.671 6.36033 12.75 6.55109 12.75 6.75ZM12 20.25C10.3683 20.25 8.77326 19.7661 7.41655 18.8596C6.05984 17.9531 5.00242 16.6646 4.378 15.1571C3.75358 13.6497 3.5902 11.9909 3.90853 10.3905C4.22685 8.79017 5.01259 7.32016 6.16637 6.16637C7.32016 5.01259 8.79017 4.22685 10.3905 3.90853C11.9909 3.5902 13.6497 3.75358 15.1571 4.378C16.6646 5.00242 17.9531 6.05984 18.8596 7.41655C19.7661 8.77326 20.25 10.3683 20.25 12C20.25 12.1989 20.329 12.3897 20.4697 12.5303C20.6103 12.671 20.8011 12.75 21 12.75C21.1989 12.75 21.3897 12.671 21.5303 12.5303C21.671 12.3897 21.75 12.1989 21.75 12C21.75 10.0716 21.1782 8.18657 20.1068 6.58319C19.0355 4.97982 17.5127 3.73013 15.7312 2.99218C13.9496 2.25422 11.9892 2.06114 10.0979 2.43735C8.20656 2.81355 6.46928 3.74215 5.10571 5.10571C3.74215 6.46928 2.81355 8.20656 2.43735 10.0979C2.06114 11.9892 2.25422 13.9496 2.99218 15.7312C3.73013 17.5127 4.97982 19.0355 6.58319 20.1068C8.18657 21.1782 10.0716 21.75 12 21.75C12.1989 21.75 12.3897 21.671 12.5303 21.5303C12.671 21.3897 12.75 21.1989 12.75 21C12.75 20.8011 12.671 20.6103 12.5303 20.4697C12.3897 20.329 12.1989 20.25 12 20.25ZM20.1206 18.6206C20.5404 18.2011 20.8263 17.6666 20.9422 17.0846C21.0581 16.5026 20.9988 15.8993 20.7718 15.351C20.5448 14.8027 20.1603 14.3341 19.6669 14.0043C19.1735 13.6746 18.5934 13.4986 18 13.4986C17.4066 13.4986 16.8265 13.6746 16.3331 14.0043C15.8397 14.3341 15.4552 14.8027 15.2282 15.351C15.0012 15.8993 14.9419 16.5026 15.0578 17.0846C15.1737 17.6666 15.4596 18.2011 15.8794 18.6206C15.0896 19.1251 14.5173 19.9071 14.2753 20.8125C14.2467 20.9232 14.2438 21.039 14.2669 21.151C14.2899 21.263 14.3382 21.3682 14.4081 21.4587C14.478 21.5492 14.5677 21.6224 14.6703 21.6729C14.7729 21.7234 14.8857 21.7498 15 21.75H21C21.115 21.75 21.2284 21.7236 21.3315 21.6728C21.4346 21.622 21.5247 21.5481 21.5947 21.457C21.6647 21.3658 21.7129 21.2598 21.7354 21.1471C21.758 21.0343 21.7543 20.918 21.7247 20.8069C21.4814 19.9036 20.9093 19.1238 20.1206 18.6206Z" fill="black"/>
</svg>
