<svg width="24" height="24" viewBox="0 0 24 24" fill="none" xmlns="http://www.w3.org/2000/svg">
<g clip-path="url(#clip0_62803_20850)">
<path d="M8.83447 15.3206C7.13672 14.6265 5.72424 13.3978 4.79224 11.7836C4.4859 11.2531 4.242 10.6981 4.06073 10.1279C1.66772 11.2172 0 13.6309 0 16.4271C0 20.2408 3.10272 23.3436 6.91663 23.3436C8.41956 23.3436 9.81189 22.8615 10.9477 22.0441C9.59033 20.5626 8.76068 18.59 8.76068 16.4271C8.76068 16.0519 8.78613 15.6826 8.83447 15.3206Z" fill="#8C8C8C"/>
<path d="M12.0002 9.84229C13.4074 8.75354 15.171 8.10461 17.0836 8.10461C17.7005 8.10461 18.3018 8.17273 18.8808 8.30072C19.0197 6.90967 18.7409 5.4646 17.9901 4.16437C17.0664 2.56439 15.575 1.41998 13.7904 0.941711C13.1946 0.782043 12.5898 0.703125 11.989 0.703125C10.7904 0.703125 9.60775 1.01733 8.54189 1.63275C6.94192 2.55652 5.79751 4.0481 5.31942 5.83264C5.10024 6.65002 5.03359 7.48425 5.11379 8.302C5.6946 8.17328 6.29793 8.10461 6.91683 8.10461C8.82937 8.10461 10.593 8.75354 12.0002 9.84229Z" fill="#8C8C8C"/>
<path d="M6.0097 11.0811C6.74286 12.3509 7.83398 13.3334 9.1452 13.924C9.51508 12.7537 10.1371 11.6946 10.9473 10.8104C9.81152 9.99304 8.41919 9.51074 6.91626 9.51074C6.39313 9.51074 5.88373 9.56952 5.39355 9.68011C5.54498 10.1628 5.75061 10.6323 6.0097 11.0811Z" fill="#8C8C8C"/>
<path d="M24.0004 16.4279C24.0004 13.6293 22.3298 11.2138 19.9335 10.126C19.3296 12.0433 18.0358 13.7489 16.1619 14.8309C15.8383 15.0176 15.5056 15.1812 15.1661 15.3216C15.2143 15.6836 15.2397 16.0527 15.2397 16.4279C15.2397 18.5908 14.4103 20.5634 13.0527 22.0449C14.1885 22.8622 15.5809 23.3444 17.0838 23.3444C20.8977 23.3444 24.0004 20.2416 24.0004 16.4279Z" fill="#8C8C8C"/>
<path d="M13.8002 15.7521C13.2137 15.8826 12.6153 15.9495 12.0136 15.9495C11.4094 15.9495 10.8022 15.8821 10.2003 15.748C10.1783 15.9718 10.167 16.1985 10.167 16.4279C10.167 18.2335 10.8628 19.8796 12.0001 21.1127C13.1373 19.8796 13.8331 18.2335 13.8331 16.4279C13.8331 16.1998 13.8218 15.9744 13.8002 15.7521Z" fill="#8C8C8C"/>
<path d="M18.6005 9.67865C18.1123 9.56897 17.6047 9.51074 17.0838 9.51074C15.5809 9.51074 14.1885 9.99286 13.0527 10.8102C13.8628 11.6943 14.4848 12.7534 14.8547 13.9234C15.0596 13.83 15.2612 13.7264 15.4587 13.6123C17.0237 12.7089 18.1019 11.2816 18.6005 9.67865Z" fill="#8C8C8C"/>
<path d="M10.4795 14.3692C11.4944 14.599 12.5294 14.5974 13.5218 14.3723C13.2131 13.3821 12.687 12.4869 12.0002 11.7422C11.3141 12.4861 10.7884 13.3802 10.4795 14.3692Z" fill="#8C8C8C"/>
</g>
<defs>
<clipPath id="clip0_62803_20850">
<rect width="24" height="24" fill="white"/>
</clipPath>
</defs>
</svg>
