<svg width="24" height="24" viewBox="0 0 24 24" fill="none" xmlns="http://www.w3.org/2000/svg">
<path d="M15.0115 5.59742C14.3247 4.30484 13.4804 3.45508 12.5879 3.20508V7.26137C13.6444 7.24699 14.6761 7.18422 15.6468 7.07777C15.4652 6.54855 15.2531 6.05223 15.0115 5.59742Z" fill="black"/>
<path d="M15.9786 8.22168C14.9046 8.34734 13.7592 8.42094 12.5879 8.43648V11.412H16.3959C16.3606 10.2936 16.2184 9.21602 15.9786 8.22168Z" fill="black"/>
<path d="M8.0284 8.19482C7.78465 9.19658 7.64016 10.2836 7.60449 11.4122H11.4125V8.43268C10.2367 8.40936 9.09438 8.32822 8.0284 8.19482Z" fill="black"/>
<path d="M8.98895 5.59742C8.75113 6.045 8.54191 6.53289 8.3623 7.0527C9.32484 7.16609 10.3529 7.23574 11.4125 7.2573V3.20508C10.52 3.45504 9.67574 4.30484 8.98895 5.59742Z" fill="black"/>
<path d="M7.60645 12.5874C7.65414 13.9294 7.85594 15.2113 8.19559 16.3591C9.1823 16.2254 10.2635 16.1384 11.4123 16.1015V12.5874H7.60645Z" fill="black"/>
<path d="M20.7293 7.07715C20.1185 7.31895 19.8734 7.41855 19.7944 7.4527C19.8259 7.44266 19.8579 7.43281 19.889 7.42266C19.9085 7.41633 19.6812 7.50164 19.7944 7.4527C19.0218 7.69805 18.1257 7.90242 17.1465 8.06039C17.3918 9.11316 17.5364 10.2444 17.5712 11.4124H21.9998C21.9113 9.87125 21.4755 8.3957 20.7293 7.07715Z" fill="black"/>
<path d="M6.4309 12.5874H2C2.10512 14.4162 2.69977 16.1522 3.72105 17.6436C4.06031 17.4433 4.45348 17.2631 4.8998 17.1039C5.51418 16.8849 6.23004 16.6988 7.0277 16.5475C6.6818 15.3294 6.4777 13.9853 6.4309 12.5874Z" fill="black"/>
<path d="M4.14047 7.35275C4.02547 7.3133 3.69367 7.19646 3.29793 7.02979C2.53516 8.36041 2.08961 9.85275 2 11.4126H6.42867C6.46387 10.2308 6.61133 9.08643 6.86191 8.02311C5.84473 7.84889 4.9223 7.62361 4.14047 7.35275Z" fill="black"/>
<path d="M4.91621 4.91652C4.56555 5.26723 4.24422 5.63945 3.95312 6.03008C4.13266 6.10195 4.32223 6.1727 4.51906 6.24023L4.52477 6.24219C5.28043 6.50395 6.18078 6.72062 7.17914 6.88621C7.39391 6.22645 7.65184 5.60875 7.9507 5.04629C8.8673 3.32117 10.0799 2.2382 11.4121 2C8.9573 2.14105 6.6691 3.16367 4.91621 4.91652Z" fill="black"/>
<path d="M7.95117 18.8853C7.74898 18.5048 7.56574 18.0987 7.4016 17.6719C6.60422 17.8164 5.89496 17.9969 5.29461 18.211C4.95684 18.3315 4.67836 18.4567 4.44824 18.5817C4.5982 18.7532 4.75402 18.9208 4.91664 19.0834C6.66949 20.8363 8.9577 21.8589 11.4125 21.9999C10.0804 21.7617 8.86777 20.6104 7.95117 18.8853Z" fill="black"/>
<path d="M19.0838 4.91656C17.3309 3.16367 15.0427 2.14105 12.5879 2C13.92 2.2382 15.1326 3.32117 16.0493 5.04633C16.3535 5.61883 16.6154 6.24844 16.8324 6.92148C17.8341 6.76539 18.7441 6.55926 19.514 6.30898C19.5984 6.2768 19.7315 6.21703 20.0796 6.07469C19.78 5.66785 19.4478 5.28055 19.0838 4.91656Z" fill="black"/>
<path d="M16.665 17.4956C16.4845 17.9873 16.2791 18.4527 16.0493 18.8852C15.1326 20.6103 13.9201 21.7616 12.5879 21.9998C15.0427 21.8588 17.3309 20.8362 19.0838 19.0833C19.3781 18.789 19.6518 18.4796 19.9043 18.1568C18.9825 17.8724 17.8792 17.6488 16.665 17.4956Z" fill="black"/>
<path d="M8.59375 17.4911C8.71523 17.7852 8.84707 18.0667 8.98906 18.334C9.67582 19.6266 10.5202 20.5446 11.4127 20.7946V17.2773C10.4089 17.3102 9.4627 17.3823 8.59375 17.4911Z" fill="black"/>
<path d="M17.5689 12.5874C17.5245 13.9134 17.3386 15.1911 17.0244 16.3587C18.3777 16.5404 19.5992 16.8073 20.5984 17.1469C21.4245 15.7724 21.9061 14.2166 21.9998 12.5874H17.5689V12.5874Z" fill="black"/>
<path d="M12.5879 12.5874V16.0816C12.6205 16.0815 12.6528 16.0812 12.6855 16.0812C13.77 16.0812 14.8334 16.1308 15.8437 16.2249C16.1598 15.1118 16.3479 13.8773 16.3937 12.5874H12.5879Z" fill="black"/>
<path d="M12.6855 17.2568C12.6528 17.2568 12.6204 17.2571 12.5879 17.2572V20.7949C13.4804 20.5448 14.3247 19.6268 15.0115 18.3342C15.1729 18.0305 15.321 17.7081 15.4558 17.37C14.567 17.2957 13.6358 17.2568 12.6855 17.2568Z" fill="black"/>
</svg>
