<svg width="24" height="24" viewBox="0 0 24 24" fill="none" xmlns="http://www.w3.org/2000/svg">
<g clip-path="url(#clip0_62803_20851)">
<path d="M22.4082 18.262L12.3442 23.9104C12.1304 24.0304 11.8698 24.0304 11.6561 23.9104L1.59199 18.262C1.1134 17.9938 1.11434 17.3034 1.59199 17.0357L4.09512 15.6309L10.9679 19.4882C11.6089 19.8483 12.3923 19.8478 13.0323 19.4882L19.9051 15.6309L22.4082 17.0357C22.8868 17.3038 22.8859 17.9943 22.4082 18.262Z" fill="#8C8C8C"/>
<path d="M22.4082 11.3873L19.9051 9.98242L13.0323 13.8398C12.3925 14.1993 11.6087 14.1998 10.9679 13.8398L4.09512 9.98242L1.59199 11.3873C1.11434 11.6549 1.1134 12.3454 1.59199 12.6135L11.6561 18.262C11.8698 18.382 12.1304 18.382 12.3442 18.262L22.4082 12.6135C22.8859 12.3459 22.8868 11.6554 22.4082 11.3873Z" fill="#8C8C8C"/>
<path d="M22.4082 6.96469L12.3442 12.6131C12.1304 12.7331 11.8698 12.7331 11.6561 12.6131L1.59199 6.96469C1.1134 6.69656 1.11434 6.00609 1.59199 5.73844L11.6561 0.09C11.8699 -0.03 12.1304 -0.03 12.3442 0.09L22.4082 5.73844C22.8868 6.00656 22.8859 6.69703 22.4082 6.96469Z" fill="#8C8C8C"/>
</g>
<defs>
<clipPath id="clip0_62803_20851">
<rect width="24" height="24" fill="white"/>
</clipPath>
</defs>
</svg>
