<svg width="24" height="24" viewBox="0 0 24 24" fill="none" xmlns="http://www.w3.org/2000/svg">
<path d="M16.6875 3.75C18.2285 3.75174 19.7062 4.36442 20.7959 5.4541C21.8856 6.54378 22.4983 8.02146 22.5 9.5625C22.5 16.1244 12.7716 21.4359 12.3555 21.6562C12.2463 21.715 12.124 21.7461 12 21.7461L11.9072 21.7402C11.8155 21.7288 11.7264 21.7003 11.6445 21.6562C11.2284 21.4359 1.5 16.1244 1.5 9.5625C1.50174 8.02146 2.11442 6.54378 3.2041 5.4541C4.29378 4.36442 5.77146 3.75174 7.3125 3.75C9.24831 3.75 10.9434 4.58224 12 5.98926C13.0566 4.58224 14.7517 3.75 16.6875 3.75ZM16.6865 5.75C15.3356 5.75028 14.2522 6.32135 13.5996 7.19043L12 9.32031L10.4004 7.19043C9.74761 6.32114 8.66387 5.75 7.3125 5.75C6.30193 5.75173 5.33279 6.15354 4.61816 6.86816C3.90308 7.58325 3.50122 8.55318 3.5 9.56445C3.501 11.9092 5.30907 14.3594 7.73438 16.4834C9.41404 17.9544 11.1285 19.0405 12 19.5566C12.8715 19.0405 14.586 17.9544 16.2656 16.4834C18.6909 14.3594 20.499 11.9092 20.5 9.56445C20.4988 8.55318 20.0969 7.58325 19.3818 6.86816C18.667 6.15331 17.6974 5.75148 16.6865 5.75Z" fill="black"/>
</svg>
