<svg width="24" height="24" viewBox="0 0 24 24" fill="none" xmlns="http://www.w3.org/2000/svg">
<g clip-path="url(#clip0_62800_109310)">
<path d="M3.99791 17.7798C4.43708 17.3101 4.93579 16.8999 5.48085 16.5643C5.89527 16.3087 6.73513 15.7912 7.148 15.5373C6.01471 14.3119 5.39371 12.729 5.39371 11.05V9.77637C5.0961 10.5854 4.67568 11.5159 4.08557 12.4754C3.37879 13.6238 3.14769 14.9808 3.43316 16.2961C3.54749 16.8221 3.73874 17.3213 3.99791 17.7798Z" fill="black"/>
<path d="M18.5216 16.5643C19.0667 16.8999 19.5653 17.3105 20.0045 17.7802C20.2637 17.3218 20.4549 16.8225 20.5693 16.2966C20.8547 14.9813 20.6237 13.6243 19.9169 12.4759C19.3268 11.5163 18.9064 10.5859 18.6088 9.77686V11.0504C18.6088 12.73 17.9878 14.3134 16.854 15.5377C17.2673 15.7923 18.106 16.3086 18.5216 16.5643Z" fill="black"/>
<path d="M8.14746 16.5733L9.11159 18.7792L10.3091 17.4451C9.57795 17.2529 8.88663 16.9356 8.2609 16.5034L8.14746 16.5733Z" fill="black"/>
<path d="M14.8904 18.7792L15.8545 16.5733L15.7411 16.5034C15.1154 16.9356 14.424 17.2529 13.6929 17.4451L14.8904 18.7792Z" fill="black"/>
<path d="M21.0745 23.0553L20.2679 20.8466C19.7135 19.2449 18.4939 18.0882 17.0639 17.3179L15.7412 20.3441C15.5559 20.8035 14.8955 20.9115 14.5737 20.532L12.0011 17.6652L9.42842 20.532C9.10662 20.9114 8.44625 20.8036 8.2609 20.3441L6.93823 17.3179C5.5084 18.0881 4.28853 19.2449 3.73423 20.8466L2.92761 23.0553C2.75286 23.4953 3.11379 24.0132 3.58751 23.9999H20.4146C20.6442 23.9999 20.8589 23.8878 20.9906 23.6999C21.1219 23.5114 21.1533 23.2709 21.0745 23.0553Z" fill="black"/>
<path d="M17.2025 9.75342C17.1425 9.80732 17.0815 9.85982 17.0192 9.91139C16.0696 10.6965 14.9958 11.1292 13.9952 11.1292H10.0066C9.00596 11.1292 7.93168 10.6965 6.9826 9.91139C6.92025 9.85982 6.85932 9.80732 6.79932 9.75389V11.0504C6.79932 13.9262 9.12825 16.2573 12.0009 16.2573C13.437 16.2573 14.7376 15.6746 15.6788 14.732C16.6204 13.7902 17.2025 12.4881 17.2025 11.0504V9.75342ZM13.4778 14.3617C13.0222 14.6363 12.5118 14.7737 12.0009 14.7737C11.4901 14.7737 10.9797 14.6363 10.5241 14.3617C10.1918 14.161 10.0849 13.7288 10.2851 13.396C10.4857 13.0637 10.9173 12.9563 11.2492 13.157C11.4849 13.299 11.7428 13.3698 12.001 13.3698C12.2592 13.3698 12.517 13.299 12.7528 13.157C13.0846 12.9568 13.5163 13.0637 13.7168 13.396C13.9169 13.7288 13.8101 14.161 13.4778 14.3617Z" fill="black"/>
<path d="M12.7035 1.44094V0.703125C12.7035 0.315 12.3889 0 12.0011 0C11.6134 0 11.2987 0.315 11.2987 0.703125V1.44094C8.72393 1.56389 7.00924 3.32395 6.57129 5.5898H17.4309C16.993 3.32395 15.2783 1.56389 12.7035 1.44094Z" fill="black"/>
<path d="M10.0069 9.72281H13.9955C14.6877 9.72281 15.4643 9.37219 16.1234 8.8275C16.7158 8.33719 17.2131 7.68937 17.4657 6.99609H6.53662C7.07142 8.46 8.69311 9.72281 10.0069 9.72281Z" fill="black"/>
</g>
<defs>
<clipPath id="clip0_62800_109310">
<rect width="24" height="24" fill="white"/>
</clipPath>
</defs>
</svg>
