<svg width="24" height="24" viewBox="0 0 24 24" fill="none" xmlns="http://www.w3.org/2000/svg">
<g clip-path="url(#clip0_62800_109304)">
<path d="M3.67143 2.83203C3.67078 2.83203 3.67006 2.83203 3.66941 2.83203C3.44242 2.83203 3.22892 2.92052 3.06771 3.08132C2.90472 3.24391 2.81494 3.4604 2.81494 3.69086V16.5689C2.81494 17.0411 3.20064 17.4263 3.67482 17.4275C5.67386 17.4322 9.02304 17.8489 11.3335 20.2668V6.78954C11.3335 6.62946 11.2926 6.47907 11.2155 6.35463C9.31912 3.30072 5.67499 2.83672 3.67143 2.83203Z" fill="black"/>
<path d="M21.1855 16.569V3.69086C21.1855 3.4604 21.0957 3.24391 20.9327 3.08132C20.7715 2.92052 20.5578 2.83203 20.3311 2.83203C20.3304 2.83203 20.3296 2.83203 20.329 2.83203C18.3255 2.8368 14.6814 3.3008 12.785 6.35471C12.7078 6.47915 12.667 6.62954 12.667 6.78962V20.2668C14.9775 17.8489 18.3266 17.4322 20.3257 17.4275C20.7998 17.4263 21.1855 17.0411 21.1855 16.569Z" fill="black"/>
<path d="M23.1416 5.80176H22.5189V16.5687C22.5189 17.7745 21.5365 18.7577 20.3289 18.7607C18.6333 18.7647 15.8375 19.0963 13.8574 20.9703C17.2819 20.1318 20.892 20.6769 22.9493 21.1457C23.2062 21.2042 23.4717 21.1438 23.6775 20.9797C23.8826 20.8161 24.0002 20.5715 24.0002 20.309V6.66043C24.0003 6.18697 23.615 5.80176 23.1416 5.80176Z" fill="black"/>
<path d="M1.48138 16.5687V5.80176H0.85867C0.385294 5.80176 0 6.18697 0 6.66043V20.3087C0 20.5713 0.117657 20.8159 0.322749 20.9795C0.528406 21.1435 0.793619 21.2042 1.05091 21.1455C3.10829 20.6766 6.71841 20.1316 10.1427 20.9701C8.16278 19.0961 5.36697 18.7646 3.67137 18.7606C2.46385 18.7577 1.48138 17.7745 1.48138 16.5687Z" fill="black"/>
</g>
<defs>
<clipPath id="clip0_62800_109304">
<rect width="24" height="24" fill="white"/>
</clipPath>
</defs>
</svg>
