<svg width="24" height="24" viewBox="0 0 24 24" fill="none" xmlns="http://www.w3.org/2000/svg">
<g clip-path="url(#clip0_62800_109306)">
<path d="M18.5637 22.5718C18.432 22.6811 18.2726 22.7345 18.1142 22.7345C17.9126 22.7345 17.7124 22.6482 17.5732 22.4809L17.351 22.2137L16.7276 21.4642C16.6221 21.3376 16.5649 21.1787 16.5649 21.0142V17.4189C17.0088 17.1034 17.4917 16.7054 17.9712 16.21V20.7601L18.6542 21.5814C18.9026 21.88 18.8618 22.3234 18.5637 22.5718Z" fill="black"/>
<path d="M8.85324 22.5715C8.72152 22.6807 8.56215 22.7341 8.40371 22.7341C8.20215 22.7341 8.00199 22.6479 7.86277 22.4805L7.64199 22.2152L7.01715 21.4638C6.91215 21.3372 6.85449 21.1783 6.85449 21.0138V17.4733C7.3223 17.0594 7.76668 16.5954 8.18434 16.0835C8.20965 16.0896 8.23543 16.0957 8.26074 16.1013V20.7597L8.94371 21.581C9.1921 21.8796 9.15132 22.323 8.85324 22.5715Z" fill="black"/>
<path d="M5.27134 6.30095C4.41821 6.54891 3.64196 7.02235 3.02134 7.68329C2.14337 8.61798 1.66009 9.83907 1.66009 11.122C1.65976 12.3056 1.86967 13.4981 2.25868 14.6255C1.85415 14.8875 1.40087 15.0942 0.901182 15.2405C0.469557 15.3807 -0.0124122 15.021 0.000244035 14.5659V9.44813C0.000244035 7.82954 1.00665 6.48188 2.56379 6.01548C3.50415 5.73376 4.46556 5.85704 5.27134 6.30095Z" fill="black"/>
<path d="M23.6837 7.87875L23.3012 8.4C23.1104 8.66016 22.7673 8.75719 22.4687 8.63484L19.7045 7.50656C19.7045 13.1297 16.885 15.6544 15.1085 16.6866V20.76L15.7919 21.5813C16.0399 21.8798 15.9995 22.3233 15.701 22.5717C15.4033 22.8188 14.9603 22.7808 14.7105 22.4808L13.8649 21.4636C13.7599 21.3375 13.7022 21.1781 13.7022 21.0141L13.6952 14.7089C13.6952 14.7089 12.4235 15.0239 11.141 14.9967C11.1326 14.9967 11.1237 14.9963 11.1152 14.9963C9.74506 14.9625 8.66933 14.8434 7.65542 14.4511C7.02495 15.3572 6.27589 16.1841 5.39844 16.8516V20.76L6.08187 21.5813C6.33031 21.8794 6.28953 22.3233 5.99094 22.5717C5.69422 22.8192 5.24937 22.7808 5.00094 22.4808L4.15484 21.4641C4.04984 21.3375 3.99219 21.1786 3.99219 21.0141L3.98187 17.7563C4.25328 16.3866 4.05031 15.353 3.76766 14.6494C3.54172 14.0883 3.36687 13.508 3.24828 12.9178C3.12875 12.3281 3.06641 11.7267 3.06641 11.122C3.06641 9.20625 4.55516 7.63828 6.43902 7.51453V9.05953C6.43902 11.1098 8.10636 12.7777 10.1562 12.7777H12.1253C14.1751 12.7777 15.8429 11.1098 15.8429 9.05953V7.42359C15.8429 7.12594 15.7811 6.84188 15.669 6.585C15.7079 6.52172 15.7426 6.45609 15.7736 6.38813C16.284 5.27156 17.1109 4.31672 18.1623 3.6525C18.3662 3.52406 18.8415 3.22312 19.0501 3.09141C19.0501 2.08312 19.8671 1.26562 20.8744 1.26562C21.1589 1.26562 21.39 1.49672 21.39 1.78125V3.12563L23.6339 5.88422C24.1032 6.46031 24.1234 7.28063 23.6837 7.87875Z" fill="black"/>
<path d="M13.7336 6.72021H8.54834C8.15975 6.72021 7.84521 7.03484 7.84521 7.42353V9.05961C7.84521 10.3345 8.88209 11.3717 10.1561 11.3717H12.1253C13.3998 11.3717 14.4366 10.3345 14.4366 9.05961V7.42353C14.4367 7.03484 14.1217 6.72021 13.7336 6.72021Z" fill="black"/>
</g>
<defs>
<clipPath id="clip0_62800_109306">
<rect width="24" height="24" fill="white"/>
</clipPath>
</defs>
</svg>
