<svg width="24" height="24" viewBox="0 0 24 24" fill="none" xmlns="http://www.w3.org/2000/svg">
<path d="M21.2327 23.9998H16.8647C16.6201 24.0012 16.382 23.8662 16.2592 23.6543L15.5299 22.4216L14.7004 23.6829C14.572 23.8784 14.3484 23.9993 14.1155 23.9998H9.88389C9.65097 23.9989 9.42695 23.8779 9.29945 23.6829L8.4699 22.4216L7.74067 23.6543C7.61786 23.8662 7.37978 24.0007 7.13514 23.9998H2.76723C2.34123 24.0101 1.98831 23.5868 2.07597 23.1696L3.52745 15.2666C3.60854 15.2764 3.691 15.2811 3.7749 15.2811H7.81108L7.64425 17.0914C7.60862 17.4782 7.89311 17.8204 8.27978 17.8564C8.30181 17.8583 8.32384 17.8593 8.3454 17.8593C8.70442 17.8593 9.01094 17.5855 9.04464 17.2208L9.22365 15.2812H11.297V18.5624C11.297 18.9505 11.612 19.2655 12 19.2655C12.3881 19.2655 12.703 18.9505 12.703 18.5624V15.2812H14.8059L14.9545 17.21C14.983 17.5789 15.291 17.8593 15.6546 17.8593C15.6729 17.8593 15.6912 17.8588 15.7095 17.8574C16.0966 17.8274 16.3862 17.4894 16.3567 17.1022L16.2166 15.2812H20.2251C20.309 15.2812 20.3914 15.2765 20.4725 15.2666L21.924 23.1697C22.0116 23.5868 21.6587 24.0101 21.2327 23.9998Z" fill="black"/>
<path d="M21.9241 0.830341L20.4726 8.73337C20.3915 8.72353 20.309 8.71884 20.2251 8.71884H16.2166L16.3568 6.89775C16.3863 6.51056 16.0967 6.17259 15.7095 6.14259C15.3219 6.11306 14.9845 6.40275 14.9545 6.78994L14.806 8.71879H12.703V5.43759C12.703 5.04947 12.3881 4.73447 12.0001 4.73447C11.612 4.73447 11.2971 5.04947 11.2971 5.43759V8.71879H9.22361L9.04459 6.77915C9.00897 6.39243 8.66636 6.10884 8.27973 6.14353C7.89306 6.17962 7.60862 6.52181 7.6442 6.90853L7.81103 8.71884H3.7749C3.691 8.71884 3.60854 8.72353 3.52745 8.73337L2.07597 0.830341C1.98831 0.413154 2.34123 -0.0101278 2.76723 0.000184699H7.1357C7.38034 -0.000284051 7.61701 0.134247 7.74076 0.345653L8.47 1.57842L9.29954 0.31706C9.42751 0.12206 9.65012 0.0011222 9.88351 0.000184699H14.1165C14.3494 0.0011222 14.573 0.12206 14.7005 0.31706L15.53 1.57842L16.2593 0.345653C16.383 0.134247 16.6197 -0.000284051 16.8643 0.000184699H21.2328C21.6588 -0.0101278 22.0117 0.413154 21.9241 0.830341Z" fill="black"/>
<path d="M20.225 10.125H3.77476C3.38668 10.125 3.07178 10.44 3.07178 10.8281V13.1718C3.07178 13.56 3.38673 13.875 3.77476 13.875H20.225C20.6131 13.875 20.928 13.56 20.928 13.1718V10.8281C20.928 10.44 20.6131 10.125 20.225 10.125Z" fill="black"/>
</svg>
