<svg width="24" height="24" viewBox="0 0 24 24" fill="none" xmlns="http://www.w3.org/2000/svg">
<path d="M19.0711 4.92892C17.1823 3.04019 14.6711 2 12 2C9.32895 2 6.81766 3.04019 4.92892 4.92892C3.04019 6.81766 2 9.32895 2 12C2 14.6712 3.04019 17.1823 4.92892 19.0711C6.81766 20.9598 9.32895 22 12 22C14.6711 22 17.1823 20.9598 19.0711 19.0711C20.9598 17.1823 22 14.6712 22 12C22 9.32895 20.9598 6.81766 19.0711 4.92892ZM16.3253 14.944C16.7066 15.3255 16.7066 15.9438 16.3253 16.3251C16.1345 16.5158 15.8846 16.6112 15.6346 16.6112C15.3847 16.6112 15.1348 16.5158 14.944 16.3251L12 13.3811L9.05597 16.3253C8.86523 16.5158 8.6153 16.6112 8.36536 16.6112C8.11542 16.6112 7.86548 16.5158 7.67474 16.3253C7.29343 15.9438 7.29343 15.3255 7.67474 14.9442L10.6189 12L7.67474 9.05597C7.29343 8.6745 7.29343 8.05621 7.67474 7.6749C8.05621 7.29343 8.6745 7.29343 9.05582 7.6749L12 10.6189L14.944 7.6749C15.3255 7.29358 15.9438 7.29343 16.3251 7.6749C16.7066 8.05621 16.7066 8.6745 16.3251 9.05597L13.3811 12L16.3253 14.944Z" fill="black"/>
</svg>
