<svg width="24" height="24" viewBox="0 0 24 24" fill="none" xmlns="http://www.w3.org/2000/svg">
<path d="M20.0342 7.44971V14.014C21.2035 13.3852 22.0003 12.1499 22.0003 10.7319C22.0003 9.31372 21.2035 8.07837 20.0342 7.44971Z" fill="black"/>
<path d="M8.27609 14.4558V7.00781H4.155C2.96664 7.00781 2 7.97461 2 9.16281V12.3008C2 13.489 2.96664 14.4558 4.155 14.4558H8.27609Z" fill="black"/>
<path d="M17.385 3.28906C17.13 3.28906 16.8676 3.34888 16.6053 3.46698L9.43652 6.69284C9.44415 6.73038 9.44827 6.76944 9.44827 6.80927V14.6543C9.44827 14.6942 9.44415 14.7332 9.43652 14.7708L16.6051 17.9966C16.8676 18.1147 17.1299 18.1745 17.385 18.1745H17.3851C17.8131 18.1745 18.198 18.0034 18.4682 17.6927C18.7261 17.3966 18.8623 16.9969 18.8623 16.5372V4.92648C18.8623 3.96243 18.2547 3.28906 17.385 3.28906Z" fill="black"/>
<path d="M4.15527 15.6276C3.84384 15.6276 3.54279 15.5837 3.25684 15.5034L3.9006 18.7221C4.12598 19.8491 5.20279 20.7317 6.35193 20.7317C7.54013 20.7317 8.50693 19.765 8.50693 18.5768V15.6374L8.48511 15.6276H4.15527Z" fill="black"/>
</svg>
