<svg width="24" height="24" viewBox="0 0 24 24" fill="none" xmlns="http://www.w3.org/2000/svg">
<circle cx="12" cy="12" r="8" stroke="black" stroke-width="4"/>
<path d="M12 5C8.14019 5 5 8.14019 5 12C5 15.8598 8.14019 19 12 19C15.8598 19 19 15.8598 19 12C19 8.14019 15.8598 5 12 5ZM12 11.3836C13.0621 11.3836 13.9262 12.2476 13.9262 13.3097C13.9262 14.1563 13.377 14.8764 12.6164 15.1342V15.5196C12.6164 15.86 12.3404 16.136 12 16.136C11.6596 16.136 11.3836 15.86 11.3836 15.5196V15.1342C10.8131 14.9409 10.3616 14.4875 10.1715 13.9157C10.0641 13.5927 10.3498 13.3097 10.6903 13.3097C11.0307 13.3097 11.2992 13.6333 11.5634 13.848C11.6827 13.9449 11.8347 14.0031 12 14.0031C12.3823 14.0031 12.6933 13.692 12.6933 13.3097C12.6933 12.9274 12.3823 12.6164 12 12.6164C10.9379 12.6164 10.0738 11.7524 10.0738 10.6903C10.0738 9.84375 10.623 9.12355 11.3836 8.86585V8.48042C11.3836 8.13998 11.6596 7.86399 12 7.86399C12.3404 7.86399 12.6164 8.13998 12.6164 8.48042V8.86585C13.1869 9.05912 13.6384 9.51253 13.8285 10.0843C13.9359 10.4073 13.6502 10.6903 13.3097 10.6903C12.9693 10.6903 12.7008 10.3667 12.4366 10.152C12.3173 10.0551 12.1653 9.99695 12 9.99695C11.6177 9.99695 11.3067 10.308 11.3067 10.6903C11.3067 11.0726 11.6177 11.3836 12 11.3836Z" fill="black"/>
</svg>
