<svg width="24" height="24" viewBox="0 0 24 24" fill="none" xmlns="http://www.w3.org/2000/svg">
<path d="M21.556 10.2599L19.2619 9.69574C19.124 9.26086 18.9466 8.83914 18.7326 8.43574C19.077 7.86238 19.8009 6.65562 19.8009 6.65562C19.9394 6.42504 19.9027 6.12977 19.7128 5.9398L18.0557 4.2827C17.8657 4.09215 17.571 4.05555 17.3398 4.19457L15.5568 5.26289C15.1557 5.05059 14.7363 4.87492 14.3043 4.73816L13.7401 2.44406C13.6748 2.18313 13.4408 2 13.1719 2H10.8281C10.5592 2 10.3246 2.18312 10.2599 2.44402C10.2599 2.44402 9.8691 4.0452 9.69629 4.73758C9.23566 4.88348 8.79051 5.07289 8.36648 5.30406L6.5177 4.19457C6.28652 4.05723 5.99242 4.09273 5.80188 4.2827L4.14477 5.9398C3.9548 6.12977 3.91816 6.42504 4.05664 6.65562L5.19992 8.56508C5.01566 8.92844 4.86117 9.30664 4.73816 9.69402L2.44406 10.2599C2.18313 10.3252 2 10.5592 2 10.8281V13.1719C2 13.4408 2.18312 13.6754 2.44402 13.7401L4.73871 14.3043C4.87777 14.7454 5.05855 15.174 5.27773 15.5854L4.25465 17.2906C4.11617 17.5212 4.15281 17.8164 4.34277 18.0064L5.99988 19.6635C6.1893 19.8529 6.48453 19.8889 6.7157 19.7516C6.7157 19.7516 7.86297 19.0639 8.42488 18.7274C8.83172 18.9443 9.25742 19.1234 9.69633 19.2624L10.26 21.5559C10.3246 21.8169 10.5592 22 10.8281 22H13.1719C13.4408 22 13.6748 21.8169 13.7401 21.556L14.3037 19.2624C14.7552 19.1194 15.19 18.9345 15.6038 18.7102C16.1811 19.0564 17.3398 19.7516 17.3398 19.7516C17.5704 19.8895 17.8657 19.8541 18.0556 19.6635L19.7127 18.0064C19.9027 17.8164 19.9393 17.5212 19.8009 17.2906L18.7474 15.5356C18.9551 15.1414 19.1274 14.7288 19.2618 14.3043L21.5559 13.7401C21.8169 13.6748 22 13.4408 22 13.1719V10.8281C22 10.5592 21.8169 10.3252 21.556 10.2599ZM12 16.1016C9.73863 16.1016 7.89844 14.2614 7.89844 12C7.89844 9.73863 9.73863 7.89844 12 7.89844C14.2614 7.89844 16.1016 9.73863 16.1016 12C16.1016 14.2614 14.2614 16.1016 12 16.1016Z" fill="black"/>
</svg>
