<svg width="24" height="24" viewBox="0 0 24 24" fill="none" xmlns="http://www.w3.org/2000/svg">
<path d="M12 20.6489C11.8988 20.6489 11.7977 20.6228 11.7071 20.5704C11.6086 20.5136 9.26993 19.1557 6.89767 17.1097C5.49166 15.8971 4.36931 14.6944 3.56189 13.535C2.51705 12.0348 1.99162 10.5917 2.0001 9.24592C2.01002 7.67991 2.57092 6.20718 3.57959 5.09898C4.60529 3.97211 5.97412 3.35156 7.434 3.35156C9.30497 3.35156 11.0156 4.39961 12 6.05984C12.9845 4.39965 14.6951 3.35156 16.5661 3.35156C17.9453 3.35156 19.2612 3.91148 20.2715 4.9282C21.3803 6.04394 22.0102 7.62042 21.9999 9.25335C21.9914 10.5968 21.4561 12.0377 20.409 13.5358C19.599 14.6946 18.4783 15.8968 17.0778 17.1091C14.7142 19.1549 12.3923 20.5127 12.2946 20.5695C12.2035 20.6224 12.1017 20.6489 12 20.6489Z" fill="black"/>
</svg>
