<svg width="24" height="24" viewBox="0 0 24 24" fill="none" xmlns="http://www.w3.org/2000/svg">
<path d="M23.2969 21.1406H21.9375V4.71675C22.5297 4.44872 22.942 3.85303 22.942 3.16073C22.942 2.21766 22.1775 1.45312 21.2344 1.45312C20.2913 1.45312 19.5268 2.21766 19.5268 3.16073C19.5268 3.85308 19.939 4.44872 20.5312 4.71675V6.0907L13.7339 9.10641L17.7305 10.8792L20.5312 9.63675V13.6603L3.46875 6.0907V4.71675C4.06097 4.44872 4.47323 3.85303 4.47323 3.16073C4.47323 2.21766 3.7087 1.45312 2.76562 1.45312C1.82255 1.45312 1.05802 2.21766 1.05802 3.16073C1.05802 3.85308 1.47028 4.44872 2.0625 4.71675V21.1406H0.703125C0.314812 21.1406 0 21.4554 0 21.8438C0 22.2321 0.314812 22.5469 0.703125 22.5469H4.82812C5.21644 22.5469 5.53125 22.2321 5.53125 21.8438C5.53125 21.4554 5.21644 21.1406 4.82812 21.1406H3.46875V17.2064L10.2661 14.1909L6.26953 12.4177L3.46875 13.6603V9.63675L20.5312 17.2064V21.1406H19.1719C18.7836 21.1406 18.4688 21.4554 18.4688 21.8438C18.4688 22.2321 18.7836 22.5469 19.1719 22.5469H23.2969C23.6852 22.5469 24 22.2321 24 21.8438C24 21.4554 23.6852 21.1406 23.2969 21.1406Z" fill="black"/>
</svg>
