<svg width="24" height="24" viewBox="0 0 24 24" fill="none" xmlns="http://www.w3.org/2000/svg">
<g clip-path="url(#clip0_62800_109305)">
<path d="M8.45808 16.063C7.34002 14.9449 5.48841 14.452 3.77653 15.1731C2.26041 15.857 1.26961 17.3752 1.25311 19.0492C1.25311 20.8977 0.931078 22.3842 0.613172 22.8972L0 23.8859L1.16044 23.969C1.44469 23.9896 1.74272 23.9999 2.04966 23.9999C4.3087 23.9999 7.06425 23.4327 8.5522 22.0663C10.0143 20.7037 10.1836 17.7884 8.45808 16.063Z" fill="black"/>
<path d="M11.4497 13.0845C10.7615 12.396 9.98616 11.8569 9.16481 11.4658C8.45363 12.1996 7.76189 12.9426 7.08984 13.683C7.96936 13.9306 8.77856 14.394 9.45295 15.0702C10.1283 15.7441 10.6117 16.5844 10.8672 17.5007C11.599 16.8377 12.3352 16.1551 13.0746 15.4436C12.6991 14.5855 12.1558 13.7712 11.4497 13.0845Z" fill="black"/>
<path d="M23.6868 0.312976C23.1602 -0.213008 22.2943 -0.459524 18.0838 2.81577C15.5789 4.76446 12.9872 7.6139 10.2605 10.3406L10.205 10.3961L10.2028 10.3949L10.187 10.4107C10.9926 10.8464 11.7543 11.4 12.4372 12.0833C13.1418 12.7685 13.7109 13.5674 14.1425 14.4171L14.162 14.398L14.1592 14.3933L14.2376 14.3149C16.9629 11.5896 19.2346 8.4216 21.1834 5.91604C24.4559 1.70821 24.2149 0.840976 23.6868 0.312976Z" fill="black"/>
</g>
<defs>
<clipPath id="clip0_62800_109305">
<rect width="24" height="24" fill="white"/>
</clipPath>
</defs>
</svg>
