<svg width="24" height="24" viewBox="0 0 24 24" fill="none" xmlns="http://www.w3.org/2000/svg">
<g clip-path="url(#clip0_62800_109308)">
<path d="M22.1343 1.8501C19.6661 -0.616699 15.6514 -0.616699 13.1833 1.8501L7.96484 7.0685L13.8896 12.9932C15.109 11.9778 16.655 11.342 18.362 11.342C19.3411 11.342 20.2729 11.5453 21.1206 11.9085L22.1343 10.8012C24.6017 8.33366 24.6017 4.3183 22.1343 1.8501Z" fill="black"/>
<path d="M12.9032 13.9959L6.9702 8.06299L1.8628 13.1754C-0.604656 15.6429 -0.604656 19.6583 1.8628 22.1264C4.33091 24.5931 8.39248 24.6401 10.8607 22.1733L11.8961 21.1329C11.5329 20.2851 11.3295 19.3534 11.3295 18.3743C11.3295 16.7111 11.9342 15.2013 12.9032 13.9959Z" fill="black"/>
<path d="M12.7358 18.3743C12.7358 21.2404 14.8871 23.5795 17.6584 23.9291V12.8193C14.8871 13.169 12.7358 15.508 12.7358 18.3743Z" fill="black"/>
<path d="M19.0649 12.8193V23.9291C21.8363 23.5795 23.9875 21.2404 23.9875 18.3742C23.9875 15.508 21.8363 13.169 19.0649 12.8193Z" fill="black"/>
</g>
<defs>
<clipPath id="clip0_62800_109308">
<rect width="24" height="24" fill="white"/>
</clipPath>
</defs>
</svg>
