<svg width="24" height="24" viewBox="0 0 24 24" fill="none" xmlns="http://www.w3.org/2000/svg">
<path d="M15.0153 6.49374C13.8863 4.18828 11.5244 2.66406 8.87514 2.66406C5.08433 2.66406 2.0003 5.73059 2.0003 9.49984C2.0003 10.5242 2.22022 11.506 2.65427 12.4214L2.01167 15.6348C1.92987 16.0439 2.29072 16.4054 2.69985 16.3245L5.95286 15.6813C6.39086 15.8891 6.84398 16.0471 7.30955 16.156C6.26594 11.2131 10.0126 6.57335 15.0153 6.49374Z" fill="black"/>
<path d="M21.3457 17.4212C21.458 17.1844 21.5556 16.9432 21.6391 16.698H21.6177C23.0804 12.4044 20.0042 7.89189 15.4628 7.67217C15.4628 7.67193 15.4627 7.6717 15.4626 7.67147C11.5551 7.49139 8.30859 10.6201 8.30859 14.4996C8.30859 18.2657 11.3695 21.3298 15.1343 21.3352C16.1555 21.3339 17.1343 21.114 18.0471 20.6811C21.6098 21.3854 21.3319 21.3354 21.4138 21.3354C21.784 21.3354 22.0606 20.9961 21.9883 20.6346L21.3457 17.4212Z" fill="black"/>
</svg>
